<svg style="display:none;">
    <symbol id="symbol__russia" xmlns="http://www.w3.org/2000/svg" x="0px" y="0px"
            viewBox="0 0 512 512" style="enable-background:new 0 0 512 512;" xml:space="preserve">
<polygon style="fill:#F0F0F0;"
         points="0,85.33 0,199.107 0,312.885 0,426.662 512,426.662 512,312.885 512,199.107 512,85.33 "/>
        <rect y="85.333" style="fill:#0052B4;" width="512" height="341.337"/>
        <rect y="85.333" style="fill:#F0F0F0;" width="512" height="113.775"/>
        <rect y="312.884" style="fill:#D80027;" width="512" height="113.775"/>
      </symbol>

    <symbol id="symbol__germany" xmlns="http://www.w3.org/2000/svg" x="0px" y="0px"
            viewBox="0 0 512 512" style="enable-background:new 0 0 512 512;" xml:space="preserve">
<rect y="85.331" style="fill:#D80027;" width="512" height="341.337"/>
        <rect y="85.331" width="512" height="113.775"/>
        <rect y="312.882" style="fill:#FFDA44;" width="512" height="113.775"/>
    </symbol>

    <symbol id="symbol__united-kingdom" xmlns="http://www.w3.org/2000/svg" x="0px" y="0px"
            viewBox="0 0 512 512" style="enable-background:new 0 0 512 512;" xml:space="preserve">
<rect y="85.333" style="fill:#F0F0F0;" width="512" height="341.337"/>
        <polygon style="fill:#D80027;" points="288,85.33 224,85.33 224,223.996 0,223.996 0,287.996 224,287.996 224,426.662 288,426.662
	288,287.996 512,287.996 512,223.996 288,223.996 "/>
        <g>
	<polygon style="fill:#0052B4;" points="393.785,315.358 512,381.034 512,315.358 	"/>
            <polygon style="fill:#0052B4;" points="311.652,315.358 512,426.662 512,395.188 368.307,315.358 	"/>
            <polygon style="fill:#0052B4;" points="458.634,426.662 311.652,344.998 311.652,426.662 	"/>
</g>
        <polygon style="fill:#F0F0F0;" points="311.652,315.358 512,426.662 512,395.188 368.307,315.358 "/>
        <polygon style="fill:#D80027;" points="311.652,315.358 512,426.662 512,395.188 368.307,315.358 "/>
        <g>
	<polygon style="fill:#0052B4;" points="90.341,315.356 0,365.546 0,315.356 	"/>
            <polygon style="fill:#0052B4;" points="200.348,329.51 200.348,426.661 25.491,426.661 	"/>
</g>
        <polygon style="fill:#D80027;" points="143.693,315.358 0,395.188 0,426.662 0,426.662 200.348,315.358 "/>
        <g>
	<polygon style="fill:#0052B4;" points="118.215,196.634 0,130.958 0,196.634 	"/>
            <polygon style="fill:#0052B4;" points="200.348,196.634 0,85.33 0,116.804 143.693,196.634 	"/>
            <polygon style="fill:#0052B4;" points="53.366,85.33 200.348,166.994 200.348,85.33 	"/>
</g>
        <polygon style="fill:#F0F0F0;" points="200.348,196.634 0,85.33 0,116.804 143.693,196.634 "/>
        <polygon style="fill:#D80027;" points="200.348,196.634 0,85.33 0,116.804 143.693,196.634 "/>
        <g>
	<polygon style="fill:#0052B4;" points="421.659,196.636 512,146.446 512,196.636 	"/>
            <polygon style="fill:#0052B4;" points="311.652,182.482 311.652,85.331 486.509,85.331 	"/>
</g>
        <polygon style="fill:#D80027;" points="368.307,196.634 512,116.804 512,85.33 512,85.33 311.652,196.634 "/>
    </symbol>

    <symbol id="symbol__china" xmlns="http://www.w3.org/2000/svg" x="0px" y="0px"
            viewBox="0 0 512 512" style="enable-background:new 0 0 512 512;" xml:space="preserve">
<rect y="85.331" style="fill:#D80027;" width="512" height="341.337"/>
        <polygon style="fill:#FFDA44;" points="178.923,189.567 193.579,234.674 241.008,234.674 202.637,262.552 217.294,307.661
		178.923,279.782 140.552,307.661 155.208,262.552 116.837,234.674 164.266,234.674 	"/>
        <polygon style="fill:#FFDA44;" points="271.3,339.593 256.91,329.138 242.522,339.592 248.017,322.678 233.628,312.223
		251.414,312.223 256.91,295.307 262.408,312.223 280.193,312.223 265.804,322.677 	"/>
        <polygon style="fill:#FFDA44;" points="308.837,287.927 291.052,287.927 285.556,304.841 280.06,287.928 262.273,287.927
		276.664,277.472 271.166,260.557 285.556,271.01 299.945,260.557 294.449,277.472 	"/>
        <polygon style="fill:#FFDA44;" points="308.837,224.063 294.449,234.518 299.944,251.432 285.556,240.979 271.166,251.434
		276.664,234.517 262.273,224.065 280.061,224.063 285.556,207.147 291.052,224.063 	"/>
        <polygon style="fill:#FFDA44;" points="271.3,172.397 265.805,189.313 280.193,199.766 262.408,199.767 256.91,216.684
		251.414,199.766 233.629,199.768 248.018,189.312 242.522,172.396 256.91,182.851 	"/>
    </symbol>

    <symbol id="symbol__arrow" version="1.1" xmlns="http://www.w3.org/2000/svg" x="0px" y="0px"
         viewBox="0 0 31.49 31.49" style="enable-background:new 0 0 31.49 31.49;" xml:space="preserve">
<path d="M21.205,5.007c-0.429-0.444-1.143-0.444-1.587,0c-0.429,0.429-0.429,1.143,0,1.571l8.047,8.047H1.111
	C0.492,14.626,0,15.118,0,15.737c0,0.619,0.492,1.127,1.111,1.127h26.554l-8.047,8.032c-0.429,0.444-0.429,1.159,0,1.587
	c0.444,0.444,1.159,0.444,1.587,0l9.952-9.952c0.444-0.429,0.444-1.143,0-1.571L21.205,5.007z"/>
</symbol>

    <symbol id="symbol__fb" xmlns="http://www.w3.org/2000/svg" width="16" height="28.054" viewBox="0 0 16 28.054"><defs><style>.a{fill:#323233;}</style></defs><path class="a" d="M721,3732l-4.4-.053c-4.607,0-7.584,2.994-7.584,7.627L709,3743h-4v6h4v11h6v-11h5l1-6h-6v-3c0-1.433.1-2,2-2h4Z" transform="translate(-705 -3731.945)"/></symbol>

    <symbol id="symbol__tw" xmlns="http://www.w3.org/2000/svg" width="32.222" height="25.958" viewBox="0 0 32.222 25.958"><defs><style>.a{fill:#323233;}</style></defs><path class="a" d="M799.222,3736.2a13.311,13.311,0,0,1-3.8,1.032,6.585,6.585,0,0,0,2.907-3.626,13.314,13.314,0,0,1-4.2,1.59,6.626,6.626,0,0,0-11.436,4.483,6.535,6.535,0,0,0,.171,1.494,18.826,18.826,0,0,1-13.626-6.847,6.522,6.522,0,0,0,2.046,8.748,6.618,6.618,0,0,1-2.994-.819c0,.028,0,.055,0,.083a6.572,6.572,0,0,0,5.3,6.426,6.662,6.662,0,0,1-2.986.112,6.61,6.61,0,0,0,6.175,4.551,13.335,13.335,0,0,1-8.21,2.806,13.505,13.505,0,0,1-1.577-.092,18.827,18.827,0,0,0,10.134,2.945,18.594,18.594,0,0,0,18.809-18.645q0-.427-.019-.848A13.375,13.375,0,0,0,799.222,3736.2Z" transform="translate(-767 -3733.124)"/></symbol>

</svg>